v -0.060000 0.460288 -0.010000
v -0.060000 2.498682 -0.010000
v 0.018000 2.435633 -0.010000
v 0.018000 0.460022 -0.010000
v 0.018000 0.460022 0.010000
v 0.018000 2.435633 0.010000
v -0.060000 2.498682 0.010000
v -0.060000 0.460288 0.010000
v 0.060000 0.459765 0.000000
v 0.018684 0.460022 0.012000
v 0.061944 0.459765 0.000000
v 0.018684 0.460022 -0.012000
v -0.061656 0.460288 -0.012000
v 0.061944 0.364682 0.000000
v 0.018684 0.364682 -0.012000
v 0.018684 0.364682 0.012000
v -0.061656 0.364682 0.012000
v -0.061656 0.460288 0.012000
v -0.061656 0.364682 -0.012000
v 0.060000 2.464682 0.000000
v -0.060000 2.564682 0.000000
v 0.065883 0.355000 -0.018890
v 0.066046 0.355000 0.018314
v 0.069263 0.355000 0.020090
v 0.069263 0.355000 -0.020090
v 0.027127 0.355000 -0.045028
v 0.028690 0.355000 -0.048502
v -0.027519 0.355000 -0.044790
v -0.028690 0.355000 -0.048502
v -0.066046 0.355000 -0.018314
v -0.069263 0.355000 -0.020090
v -0.065883 0.355000 0.018890
v -0.069263 0.355000 0.020090
v -0.027127 0.355000 0.045028
v -0.028690 0.355000 0.048502
v -0.092951 0.350000 0.092983
v 0.001125 0.350000 0.131470
v 0.001125 0.370000 0.131470
v -0.092951 0.370000 0.092983
v 0.081569 0.365000 -0.081433
v -0.001102 0.365000 -0.115254
v -0.083030 0.365000 -0.081466
v -0.116322 0.365000 -0.000091
v -0.081569 0.365000 0.081433
v 0.001102 0.365000 0.115254
v 0.083030 0.365000 0.081466
v 0.116322 0.365000 0.000091
v -0.001125 0.350000 -0.131471
v -0.094541 0.350000 -0.092944
v -0.094541 0.370000 -0.092944
v -0.001125 0.370000 -0.131471
v 0.092951 0.350000 -0.092983
v 0.092951 0.370000 -0.092983
v 0.094541 0.350000 0.092944
v 0.132577 0.350000 -0.000028
v 0.132577 0.370000 -0.000028
v 0.094541 0.370000 0.092944
v -0.132577 0.350000 0.000028
v -0.132577 0.370000 0.000028
v -0.001102 0.370000 -0.115254
v 0.081569 0.370000 -0.081433
v 0.116322 0.370000 0.000091
v 0.083030 0.370000 0.081466
v 0.001102 0.370000 0.115254
v -0.081569 0.370000 0.081433
v -0.116322 0.370000 -0.000091
v -0.083030 0.370000 -0.081466
v 0.081569 0.350000 -0.081433
v -0.001102 0.350000 -0.115254
v 0.116322 0.350000 0.000091
v 0.083030 0.350000 0.081466
v 0.001102 0.350000 0.115254
v -0.081569 0.350000 0.081433
v -0.116322 0.350000 -0.000091
v -0.083030 0.350000 -0.081466
v -0.116322 0.355000 -0.000091
v -0.083030 0.355000 -0.081466
v -0.081569 0.355000 0.081433
v 0.027519 0.355000 0.044790
v 0.001102 0.355000 0.115254
v 0.083030 0.355000 0.081466
v 0.116322 0.355000 0.000091
v 0.081569 0.355000 -0.081433
v -0.001102 0.355000 -0.115254
v 0.028690 0.355000 0.048502
v 0.038690 0.350000 -0.048502
v -0.038690 0.350000 -0.048502
v 0.069263 0.350000 -0.020090
v 0.069263 0.350000 0.020090
v 0.038690 0.350000 0.048502
v -0.038690 0.350000 0.048502
v -0.069263 0.350000 0.020090
v -0.069263 0.350000 -0.020090
v -0.060000 0.364682 -0.010000
v 0.018000 0.364682 -0.010000
v 0.018000 0.364682 0.010000
v -0.060000 0.364682 0.010000
v 0.060000 0.364682 0.000000
v 0.036022 -0.374000 -0.041583
v 0.062824 -0.374000 -0.017224
v 0.065965 -0.374000 -0.018602
v 0.037324 -0.374000 -0.044909
v -0.065965 0.310000 0.018602
v -0.037324 0.310000 0.044909
v -0.038690 0.310000 0.048502
v -0.069263 0.310000 0.020090
v -0.065965 0.310000 -0.018602
v -0.069263 0.310000 -0.020090
v -0.062824 -0.374000 -0.017224
v -0.036022 -0.374000 -0.041583
v -0.037324 -0.374000 -0.044909
v -0.065965 -0.374000 -0.018602
v -0.037324 0.310000 -0.044909
v -0.038690 0.310000 -0.048502
v -0.062824 -0.374000 0.017224
v -0.065965 -0.374000 0.018602
v 0.000000 0.310000 -0.044909
v 0.000000 0.310000 -0.048502
v -0.036022 -0.374000 0.041583
v -0.037324 -0.374000 0.044909
v 0.065965 0.310000 -0.018602
v 0.037324 0.310000 -0.044909
v 0.038690 0.310000 -0.048502
v 0.069263 0.310000 -0.020090
v 0.065965 0.310000 0.018602
v 0.069263 0.310000 0.020090
v 0.062824 -0.374000 0.017224
v 0.036022 -0.374000 0.041583
v 0.037324 -0.374000 0.044909
v 0.065965 -0.374000 0.018602
v 0.037324 0.310000 0.044909
v 0.038690 0.310000 0.048502
v -0.037324 -0.450000 -0.044909
v 0.037324 -0.450000 -0.044909
v 0.065965 -0.450000 -0.018602
v 0.065965 -0.450000 0.018602
v 0.037324 -0.450000 0.044910
v -0.037324 -0.450000 0.044910
v -0.065965 -0.450000 0.018602
v -0.065965 -0.450000 -0.018602
v 0.000000 -0.374000 -0.044909
v 0.000000 -0.374000 0.044909
v 0.037324 0.310000 -0.039909
v -0.037324 0.310000 -0.039909
vt 0.139636 0.660729
vt 0.534692 0.195751
vt 0.534692 0.575462
vt 0.101589 0.195143
vt 0.396977 0.662269
vt 0.016390 0.575378
vt 0.502027 0.111784
vt 0.276945 0.555430
vt 0.090734 0.576878
vt 0.276604 0.555881
vt 0.460367 0.576659
vt 0.334756 0.736950
vt 0.492626 0.577011
vt 0.276062 0.551567
vt 0.054107 0.577382
vt 0.197285 0.745213
vt 0.497292 0.859006
vt 0.052384 0.886605
vt 0.339487 0.000000
vt 0.154101 0.111248
vt 0.313691 0.236340
vt 0.685518 0.550007
vt 0.809107 0.533969
vt 0.803248 0.546552
vt 0.885376 0.475909
vt 0.853852 0.478169
vt 0.880913 0.398034
vt 0.848358 0.395154
vt 0.794390 0.323524
vt 0.814914 0.337621
vt 0.671447 0.339308
vt 0.678534 0.326701
vt 0.597405 0.397446
vt 0.629042 0.395203
vt 0.736312 0.438612
vt 0.785664 0.214386
vt 0.707107 0.218793
vt 0.932247 0.439487
vt 0.909150 0.636393
vt 0.571999 0.630986
vt 0.773732 0.211339
vt 0.687782 0.434820
vt 0.746394 0.434985
vt 0.698918 0.659488
vt 0.777351 0.655380
vt 0.738407 0.876540
vt 0.779600 0.666603
vt 0.700871 0.662916
vt 0.741955 0.000000
vt 0.738442 0.006401
vt 0.794902 0.438925
vt 0.694922 0.207286
vt 0.734964 0.866930
vt 0.655134 0.628796
vt 0.630407 0.434661
vt 0.730798 0.773866
vt 0.825903 0.634732
vt 0.828490 0.245505
vt 0.852239 0.439180
vt 0.747461 0.095149
vt 0.650670 0.239567
vt 0.807243 0.612616
vt 0.744959 0.778857
vt 0.670447 0.619890
vt 0.677790 0.438243
vt 0.676111 0.261149
vt 0.733227 0.099844
vt 0.806210 0.254003
vt 0.804926 0.435243
vt 0.883640 0.260199
vt 0.598723 0.267575
vt 0.598412 0.437914
vt 0.633350 0.478323
vt 0.592502 0.613938
vt 0.885070 0.606404
vt 0.884311 0.435455
vt 0.550360 0.434456
vt 0.728527 0.768079
vt 0.912268 0.243125
vt 0.749795 0.101236
vt 0.566779 0.237703
vt 0.600919 0.475441
vt 0.664728 0.535809
vt 0.747331 0.772231
vt 0.730938 0.106123
vt 0.913130 0.390724
vt 0.914704 0.483112
vt 0.811024 0.525723
vt 0.568552 0.482750
vt 0.663408 0.526611
vt 0.567735 0.390206
vt 0.669193 0.347597
vt 0.816372 0.346787
vt 0.368034 0.579411
vt 0.238075 0.997525
vt 0.519039 0.926772
vt 0.275877 0.552733
vt 0.186822 0.579625
vt 0.720215 0.460677
vt 0.745727 0.453770
vt 0.723929 0.454725
vt 0.682688 0.379471
vt 0.569173 0.396716
vt 0.684725 0.363266
vt 0.800796 0.363002
vt 0.800968 0.379590
vt 0.716707 0.412934
vt 0.740528 0.421826
vt 0.735233 0.412341
vt 0.909981 0.397332
vt 0.943509 0.404016
vt 0.742552 0.412305
vt 0.759122 0.412702
vt 0.888283 0.436926
vt 0.885552 0.436926
vt 0.733568 0.419604
vt 0.755381 0.418646
vt 0.796835 0.493877
vt 0.910908 0.476624
vt 0.795058 0.510070
vt 0.678832 0.510379
vt 0.678475 0.493794
vt 0.762601 0.460446
vt 0.738738 0.451560
vt 0.744088 0.461038
vt 0.569601 0.476102
vt 0.535468 0.469402
vt 0.736777 0.461073
vt 0.535695 0.403231
vt 0.738590 0.421036
vt 0.741308 0.412974
vt 0.736442 0.413055
vt 0.754367 0.429395
vt 0.740691 0.452343
vt 0.738014 0.460405
vt 0.742877 0.460324
vt 0.737885 0.452882
vt 0.724898 0.443987
vt 0.741387 0.420500
vt 0.760582 0.453238
vt 0.943508 0.470104
vt 0.947317 0.404016
vt 0.718673 0.420152
vt 0.947317 0.470104
vn -0.0000 0.0000 -1.0000
vn -0.0000 -0.0000 1.0000
vn -1.0000 0.0000 0.0000
vn 0.0001 1.0000 0.0000
vn 0.0040 1.0000 0.0018
vn 0.0000 1.0000 0.0000
vn 0.0016 1.0000 -0.0013
vn 0.0040 1.0000 -0.0018
vn 0.0003 1.0000 -0.0012
vn 0.0049 1.0000 0.0049
vn 0.2673 0.0000 -0.9636
vn 0.2673 -0.0000 0.9636
vn 0.0003 1.0000 0.0011
vn 0.0016 1.0000 0.0013
vn 0.0049 1.0000 -0.0049
vn 0.1261 0.1522 0.9803
vn 0.1230 0.1504 0.9809
vn 0.1202 0.1487 0.9815
vn 0.1230 0.1504 -0.9809
vn 0.1261 0.1522 -0.9803
vn 0.1202 0.1487 -0.9815
vn 0.2316 -0.0000 0.9728
vn 0.2316 0.0000 -0.9728
vn -0.3786 0.0000 0.9255
vn -0.3813 0.0000 -0.9245
vn 0.3787 0.0000 -0.9255
vn 0.9255 0.0000 0.3786
vn -0.9199 -0.0000 0.3921
vn 0.3813 0.0000 0.9245
vn -0.9255 0.0000 -0.3786
vn 0.9199 0.0000 -0.3921
vn 0.0000 -1.0000 -0.0000
vn 0.3786 0.0000 -0.9255
vn 0.6705 0.0871 -0.7368
vn 0.3993 0.7277 -0.5577
vn 0.3769 0.7538 -0.5382
vn 1.0000 0.0000 0.0000
vn 0.6705 0.0871 0.7368
vn 0.3993 0.7277 0.5577
vn 0.6807 0.0000 0.7325
vn -0.6705 0.0871 0.7368
vn -0.3993 0.7277 0.5577
vn -0.3769 0.7538 0.5382
vn -0.6705 0.0871 -0.7368
vn -0.3993 0.7277 -0.5577
vn -0.6807 0.0000 -0.7325
vn 0.0000 -0.8360 0.5488
vn -0.2180 0.7964 0.5640
vn 0.0000 -0.6094 0.7928
vn 0.6807 0.0000 -0.7325
vn -0.6807 -0.0000 0.7325
vn 0.6765 0.0000 -0.7365
vn 0.6765 0.0000 0.7365
vn -0.6765 0.0000 0.7365
vn -0.6765 0.0000 -0.7365
vn -0.3629 -0.0051 0.9318
vn 0.3013 0.5493 0.7794
vn 0.3629 -0.0051 0.9318
vn -0.6727 -0.0049 0.7399
vn 0.6727 -0.0049 -0.7399
vn 0.3629 -0.0051 -0.9318
vn 0.6764 -0.0046 -0.7365
vn -1.0000 -0.0046 0.0000
vn 1.0000 -0.0046 0.0000
vn -0.3605 -0.0052 -0.9327
vn 0.3605 -0.0052 -0.9327
vn -0.3629 -0.0051 -0.9318
vn -0.6727 -0.0049 -0.7399
vn -0.6764 -0.0046 -0.7365
vn 0.6727 -0.0049 0.7399
vn 0.1275 0.1530 0.9800
vn 0.1275 0.1530 -0.9800
vn 0.3769 0.7538 0.5382
vn -0.3769 0.7538 -0.5382
vn -0.6764 -0.0046 0.7365
vn 0.6764 -0.0046 0.7365
f 1/1/1 3/2/1 4/3/1
f 6/4/2 8/5/2 5/6/2
f 7/7/3 1/1/3 8/5/3
f 9/8/4 10/9/5 11/10/6
f 1/1/7 12/11/8 13/12/9
f 9/8/4 12/11/8 4/3/10
f 15/13/11 11/10/11 14/14/11
f 11/10/12 16/15/12 14/14/12
f 18/16/3 19/17/3 17/18/3
f 10/9/2 17/18/2 16/15/2
f 19/17/1 12/11/1 15/13/1
f 1/1/7 18/16/13 8/5/14
f 8/5/14 10/9/5 5/6/15
f 6/4/16 21/19/17 7/7/18
f 21/19/19 3/2/20 2/20/21
f 2/20/3 7/7/3 21/19/3
f 9/8/22 6/4/22 5/6/22
f 9/8/23 3/2/23 20/21/23
f 23/22/6 25/23/6 22/24/6
f 22/24/6 27/25/6 26/26/6
f 26/26/6 29/27/6 28/28/6
f 30/29/6 29/27/6 31/30/6
f 30/29/6 33/31/6 32/32/6
f 32/32/6 35/33/6 34/34/6
f 37/35/24 39/36/24 36/37/24
f 45/38/6 46/39/6 40/40/6
f 49/41/25 51/42/25 48/43/25
f 48/43/26 53/44/26 52/45/26
f 55/46/27 57/47/27 54/48/27
f 36/37/28 59/49/28 58/50/28
f 54/48/29 38/51/29 37/35/29
f 58/50/30 50/52/30 49/41/30
f 52/45/31 56/53/31 55/46/31
f 61/54/6 51/42/6 60/55/6
f 62/56/6 53/44/6 61/54/6
f 62/56/6 57/47/6 56/53/6
f 63/57/6 38/51/6 57/47/6
f 65/58/6 38/51/6 64/59/6
f 66/60/6 39/36/6 65/58/6
f 66/60/6 50/52/6 59/49/6
f 67/61/6 51/42/6 50/52/6
f 68/62/32 48/43/32 52/45/32
f 70/63/32 52/45/32 55/46/32
f 70/63/32 54/48/32 71/64/32
f 71/64/32 37/35/32 72/65/32
f 73/66/32 37/35/32 36/37/32
f 74/67/32 36/37/32 58/50/32
f 74/67/32 49/41/32 75/68/32
f 75/68/32 48/43/32 69/69/32
f 32/32/32 77/70/32 30/29/32
f 78/71/32 32/32/32 34/34/32
f 80/72/32 34/34/32 79/73/32
f 81/74/32 79/73/32 23/22/32
f 22/24/32 81/74/32 23/22/32
f 83/75/32 22/24/32 26/26/32
f 84/76/32 26/26/32 28/28/32
f 77/70/32 28/28/32 30/29/32
f 40/40/24 60/55/24 41/77/24
f 47/78/28 61/54/28 40/40/28
f 46/39/30 62/56/30 47/78/30
f 45/38/25 63/57/25 46/39/25
f 44/79/33 64/59/33 45/38/33
f 43/80/31 65/58/31 44/79/31
f 42/81/27 66/60/27 43/80/27
f 41/77/29 67/61/29 42/81/29
f 34/34/6 85/82/6 79/73/6
f 23/22/6 85/82/6 24/83/6
f 84/76/24 68/62/24 83/75/24
f 83/75/28 70/63/28 82/84/28
f 82/84/30 71/64/30 81/74/30
f 81/74/25 72/65/25 80/72/25
f 80/72/33 73/66/33 78/71/33
f 78/71/31 74/67/31 76/85/31
f 76/85/27 75/68/27 77/70/27
f 77/70/29 69/69/29 84/76/29
f 27/25/1 87/86/1 29/27/1
f 25/23/34 86/87/35 27/25/36
f 24/83/37 88/88/37 25/23/37
f 24/83/38 90/89/39 89/90/40
f 35/33/2 90/89/2 85/82/2
f 33/31/41 91/91/42 35/33/43
f 31/30/3 92/92/3 33/31/3
f 31/30/44 87/86/45 93/93/46
f 95/94/32 97/95/32 94/96/32
f 98/97/32 15/13/32 14/14/32
f 98/97/32 16/15/32 96/98/32
f 94/96/32 15/13/32 95/94/32
f 97/95/32 16/15/32 17/18/32
f 97/95/32 19/17/32 94/96/32
f 100/99/6 102/100/6 99/101/6
f 103/102/32 105/103/47 106/104/32
f 103/102/32 108/105/32 107/106/32
f 109/107/6 111/108/6 112/109/6
f 107/106/32 114/110/32 113/111/32
f 109/107/6 116/112/6 115/113/6
f 113/111/32 118/114/32 117/115/32
f 115/113/6 120/116/6 119/117/48
f 121/118/32 123/119/32 124/120/32
f 121/118/32 126/121/32 125/122/32
f 127/123/6 129/124/6 130/125/6
f 125/122/32 132/126/32 131/127/32
f 127/123/6 101/128/6 100/99/6
f 132/126/49 104/129/32 131/127/32
f 86/87/1 123/119/1 118/114/1
f 86/87/50 124/120/50 123/119/50
f 88/88/37 126/121/37 124/120/37
f 89/90/40 132/126/40 126/121/40
f 91/91/2 132/126/49 90/89/2
f 91/91/51 106/104/51 105/103/51
f 92/92/3 108/105/3 106/104/3
f 93/93/46 114/110/46 108/105/46
f 138/130/32 139/131/32 140/132/32
f 141/133/1 102/100/1 134/134/1
f 102/100/52 135/135/52 134/134/52
f 101/128/37 136/136/37 135/135/37
f 136/136/53 129/124/53 137/137/53
f 142/138/2 120/116/2 138/130/2
f 120/116/54 139/131/54 138/130/54
f 116/112/3 140/132/3 139/131/3
f 112/109/55 133/139/55 140/132/55
f 104/129/56 128/140/57 131/127/58
f 122/141/32 118/114/32 123/119/32
f 129/124/6 119/117/48 120/116/6
f 111/108/6 99/101/6 102/100/6
f 122/141/32 144/142/32 113/111/32
f 104/129/56 115/113/59 119/117/48
f 100/99/60 122/141/61 121/118/62
f 103/102/63 109/107/63 115/113/63
f 121/118/64 127/123/64 100/99/64
f 110/143/65 122/141/61 99/101/66
f 113/111/67 109/107/68 107/106/69
f 127/123/70 131/127/58 128/140/57
f 1/1/1 2/20/1 3/2/1
f 6/4/2 7/7/2 8/5/2
f 7/7/3 2/20/3 1/1/3
f 9/8/4 5/6/15 10/9/5
f 1/1/7 4/3/10 12/11/8
f 9/8/4 11/10/6 12/11/8
f 15/13/11 12/11/11 11/10/11
f 11/10/12 10/9/12 16/15/12
f 18/16/3 13/12/3 19/17/3
f 10/9/2 18/16/2 17/18/2
f 19/17/1 13/12/1 12/11/1
f 1/1/7 13/12/9 18/16/13
f 8/5/14 18/16/13 10/9/5
f 6/4/16 20/21/71 21/19/17
f 21/19/19 20/21/72 3/2/20
f 9/8/22 20/21/22 6/4/22
f 9/8/23 4/3/23 3/2/23
f 23/22/6 24/83/6 25/23/6
f 22/24/6 25/23/6 27/25/6
f 26/26/6 27/25/6 29/27/6
f 30/29/6 28/28/6 29/27/6
f 30/29/6 31/30/6 33/31/6
f 32/32/6 33/31/6 35/33/6
f 37/35/24 38/51/24 39/36/24
f 47/78/6 40/40/6 46/39/6
f 40/40/6 41/77/6 45/38/6
f 41/77/6 42/81/6 44/79/6
f 42/81/6 43/80/6 44/79/6
f 44/79/6 45/38/6 41/77/6
f 49/41/25 50/52/25 51/42/25
f 48/43/26 51/42/26 53/44/26
f 55/46/27 56/53/27 57/47/27
f 36/37/28 39/36/28 59/49/28
f 54/48/29 57/47/29 38/51/29
f 58/50/30 59/49/30 50/52/30
f 52/45/31 53/44/31 56/53/31
f 61/54/6 53/44/6 51/42/6
f 62/56/6 56/53/6 53/44/6
f 62/56/6 63/57/6 57/47/6
f 63/57/6 64/59/6 38/51/6
f 65/58/6 39/36/6 38/51/6
f 66/60/6 59/49/6 39/36/6
f 66/60/6 67/61/6 50/52/6
f 67/61/6 60/55/6 51/42/6
f 68/62/32 69/69/32 48/43/32
f 70/63/32 68/62/32 52/45/32
f 70/63/32 55/46/32 54/48/32
f 71/64/32 54/48/32 37/35/32
f 73/66/32 72/65/32 37/35/32
f 74/67/32 73/66/32 36/37/32
f 74/67/32 58/50/32 49/41/32
f 75/68/32 49/41/32 48/43/32
f 32/32/32 76/85/32 77/70/32
f 78/71/32 76/85/32 32/32/32
f 80/72/32 78/71/32 34/34/32
f 81/74/32 80/72/32 79/73/32
f 22/24/32 82/84/32 81/74/32
f 83/75/32 82/84/32 22/24/32
f 84/76/32 83/75/32 26/26/32
f 77/70/32 84/76/32 28/28/32
f 40/40/24 61/54/24 60/55/24
f 47/78/28 62/56/28 61/54/28
f 46/39/30 63/57/30 62/56/30
f 45/38/25 64/59/25 63/57/25
f 44/79/33 65/58/33 64/59/33
f 43/80/31 66/60/31 65/58/31
f 42/81/27 67/61/27 66/60/27
f 41/77/29 60/55/29 67/61/29
f 34/34/6 35/33/6 85/82/6
f 23/22/6 79/73/6 85/82/6
f 84/76/24 69/69/24 68/62/24
f 83/75/28 68/62/28 70/63/28
f 82/84/30 70/63/30 71/64/30
f 81/74/25 71/64/25 72/65/25
f 80/72/33 72/65/33 73/66/33
f 78/71/31 73/66/31 74/67/31
f 76/85/27 74/67/27 75/68/27
f 77/70/29 75/68/29 69/69/29
f 27/25/1 86/87/1 87/86/1
f 25/23/34 88/88/50 86/87/35
f 24/83/37 89/90/37 88/88/37
f 24/83/38 85/82/73 90/89/39
f 35/33/2 91/91/2 90/89/2
f 33/31/41 92/92/51 91/91/42
f 31/30/3 93/93/3 92/92/3
f 31/30/44 29/27/74 87/86/45
f 95/94/32 96/98/32 97/95/32
f 98/97/32 95/94/32 15/13/32
f 98/97/32 14/14/32 16/15/32
f 94/96/32 19/17/32 15/13/32
f 97/95/32 96/98/32 16/15/32
f 97/95/32 17/18/32 19/17/32
f 100/99/6 101/128/6 102/100/6
f 103/102/32 104/129/32 105/103/47
f 103/102/32 106/104/32 108/105/32
f 109/107/6 110/143/6 111/108/6
f 107/106/32 108/105/32 114/110/32
f 109/107/6 112/109/6 116/112/6
f 113/111/32 114/110/32 118/114/32
f 115/113/6 116/112/6 120/116/6
f 121/118/32 122/141/32 123/119/32
f 121/118/32 124/120/32 126/121/32
f 127/123/6 128/140/6 129/124/6
f 125/122/32 126/121/32 132/126/32
f 127/123/6 130/125/6 101/128/6
f 132/126/49 105/103/47 104/129/32
f 118/114/1 114/110/1 87/86/1
f 87/86/1 86/87/1 118/114/1
f 86/87/50 88/88/50 124/120/50
f 88/88/37 89/90/37 126/121/37
f 89/90/40 90/89/40 132/126/40
f 91/91/2 105/103/47 132/126/49
f 91/91/51 92/92/51 106/104/51
f 92/92/3 93/93/3 108/105/3
f 93/93/46 87/86/46 114/110/46
f 140/132/32 133/139/32 138/130/32
f 133/139/32 134/134/32 138/130/32
f 134/134/32 135/135/32 136/136/32
f 136/136/32 137/137/32 134/134/32
f 137/137/32 138/130/32 134/134/32
f 134/134/1 133/139/1 141/133/1
f 133/139/1 111/108/1 141/133/1
f 102/100/52 101/128/52 135/135/52
f 101/128/37 130/125/37 136/136/37
f 136/136/53 130/125/53 129/124/53
f 138/130/2 137/137/2 142/138/2
f 137/137/2 129/124/2 142/138/2
f 120/116/54 116/112/54 139/131/54
f 116/112/3 112/109/3 140/132/3
f 112/109/55 111/108/55 133/139/55
f 104/129/56 119/117/48 128/140/57
f 122/141/32 117/115/32 118/114/32
f 129/124/6 128/140/57 119/117/48
f 111/108/6 110/143/6 99/101/6
f 122/141/32 143/144/32 144/142/32
f 104/129/56 103/102/75 115/113/59
f 100/99/60 99/101/66 122/141/61
f 103/102/63 107/106/63 109/107/63
f 121/118/64 125/122/64 127/123/64
f 110/143/65 113/111/67 122/141/61
f 113/111/67 110/143/65 109/107/68
f 127/123/70 125/122/76 131/127/58
